<svg width="89" height="37" viewBox="0 0 89 37" fill="none" xmlns="http://www.w3.org/2000/svg">
<rect width="89" height="37" rx="8.58156" fill="black"/>
<path d="M25.2773 29.2989L30.696 17.9835L47.9082 8.58057L25.2773 29.2989Z" fill="#FFAE97"/>
<path d="M25.2773 29.2988V19.5771L30.696 17.9834L32.9272 22.2864L25.2773 29.2988Z" fill="#FF6447"/>
<path d="M26.8711 13.8401L27.9867 15.2744L47.9082 8.58079L26.8711 13.8401Z" fill="#FF6447"/>
<path d="M27.1904 8.58002L23.0468 15.9111H14.4407L27.1904 8.58002Z" fill="#FF6447"/>
<path d="M25.2773 19.5771V29.2988L14.4401 15.9116H23.0461L25.2773 19.5771Z" fill="#FFAE97"/>
<path d="M26.8721 13.8403L27.1908 8.58105H47.9092L26.8721 13.8403Z" fill="#FFAE97"/>
<path d="M53.1371 13.4709C53.652 13.4709 54.1525 13.428 54.6388 13.3422C55.1251 13.2564 55.5613 13.1133 55.9475 12.9131C56.348 12.7129 56.6841 12.4554 56.9559 12.1408C57.2419 11.8261 57.4278 11.4399 57.5137 10.9823H59.5089V26H56.8271V15.4018H53.1371V13.4709ZM69.8854 10.6819C70.9581 10.6819 71.8305 10.9322 72.5027 11.4328C73.1893 11.9191 73.7185 12.5484 74.0903 13.3207C74.4765 14.0788 74.7339 14.9155 74.8627 15.8308C75.0057 16.7462 75.0772 17.633 75.0772 18.4911C75.0772 19.3493 75.0057 20.236 74.8627 21.1514C74.7339 22.0668 74.4765 22.9106 74.0903 23.683C73.7185 24.441 73.1893 25.0703 72.5027 25.5709C71.8305 26.0572 70.9581 26.3004 69.8854 26.3004C68.8127 26.3004 67.9331 26.0572 67.2465 25.5709C66.5743 25.0703 66.0451 24.441 65.6589 23.683C65.2871 22.9106 65.0296 22.0668 64.8866 21.1514C64.7579 20.236 64.6935 19.3493 64.6935 18.4911C64.6935 17.633 64.7579 16.7462 64.8866 15.8308C65.0296 14.9155 65.2871 14.0788 65.6589 13.3207C66.0451 12.5484 66.5743 11.9191 67.2465 11.4328C67.9331 10.9322 68.8127 10.6819 69.8854 10.6819ZM69.8854 24.2622C70.4146 24.2622 70.8579 24.1121 71.2155 23.8117C71.5731 23.497 71.852 23.0823 72.0522 22.5674C72.2667 22.0382 72.4169 21.4232 72.5027 20.7223C72.5885 20.0215 72.6315 19.2778 72.6315 18.4911C72.6315 17.7045 72.5885 16.9679 72.5027 16.2814C72.4169 15.5805 72.2667 14.9655 72.0522 14.4363C71.852 13.9071 71.5731 13.4924 71.2155 13.192C70.8579 12.8774 70.4146 12.72 69.8854 12.72C69.3419 12.72 68.8913 12.8774 68.5338 13.192C68.1905 13.4924 67.9116 13.9071 67.6971 14.4363C67.4968 14.9655 67.3538 15.5805 67.268 16.2814C67.1822 16.9679 67.1393 17.7045 67.1393 18.4911C67.1393 19.2778 67.1822 20.0215 67.268 20.7223C67.3538 21.4232 67.4968 22.0382 67.6971 22.5674C67.9116 23.0823 68.1905 23.497 68.5338 23.8117C68.8913 24.1121 69.3419 24.2622 69.8854 24.2622Z" fill="#FF6447"/>
</svg>
