<svg width="20" height="20" viewBox="0 0 20 20" fill="none" xmlns="http://www.w3.org/2000/svg">
<path d="M10 0.25C8.07164 0.25 6.18657 0.821828 4.58319 1.89317C2.97982 2.96452 1.73013 4.48726 0.992179 6.26884C0.254224 8.05042 0.061142 10.0108 0.437348 11.9021C0.813554 13.7934 1.74215 15.5307 3.10571 16.8943C4.46928 18.2579 6.20656 19.1865 8.09787 19.5627C9.98919 19.9389 11.9496 19.7458 13.7312 19.0078C15.5127 18.2699 17.0355 17.0202 18.1068 15.4168C19.1782 13.8134 19.75 11.9284 19.75 10C19.7474 7.41495 18.7193 4.93654 16.8914 3.10863C15.0635 1.28073 12.5851 0.252647 10 0.25ZM15.24 7L9.41 14C9.34283 14.0791 9.26037 14.1437 9.16757 14.1901C9.07478 14.2365 8.97356 14.2637 8.87 14.27C8.76132 14.2678 8.65434 14.2426 8.55609 14.196C8.45785 14.1495 8.37057 14.0827 8.3 14L4.8 10.5C4.66752 10.3578 4.5954 10.1698 4.59883 9.97548C4.60226 9.78118 4.68097 9.59579 4.81838 9.45838C4.9558 9.32096 5.14118 9.24225 5.33548 9.23882C5.52978 9.2354 5.71783 9.30752 5.86 9.44L8.78 12.36L14.09 6C14.1557 5.92449 14.2356 5.86265 14.3251 5.81802C14.4147 5.77338 14.5121 5.74682 14.612 5.73986C14.7118 5.7329 14.812 5.74566 14.9069 5.77743C15.0018 5.80919 15.0895 5.85934 15.165 5.925C15.2405 5.99066 15.3024 6.07055 15.347 6.16011C15.3916 6.24967 15.4182 6.34714 15.4251 6.44697C15.4321 6.54679 15.4193 6.64701 15.3876 6.7419C15.3558 6.83679 15.3057 6.92449 15.24 7Z" fill="white"/>
</svg>
