<svg width="14" height="22" viewBox="0 0 14 22" fill="none" xmlns="http://www.w3.org/2000/svg">
<path d="M0.736994 21.2968C-0.245665 20.3593 -0.245665 18.8392 0.736994 17.9017L9.70447 9.34587C10.6871 8.40832 12.2803 8.40832 13.263 9.34587C14.2457 10.2834 14.2457 11.8035 13.263 12.741L4.29552 21.2968C3.31286 22.2344 1.71965 22.2344 0.736994 21.2968Z" fill="#FF6447"/>
<path d="M0.737007 0.703161C1.71967 -0.234387 3.31287 -0.234387 4.29553 0.703161L13.263 9.25897C14.2457 10.1965 14.2457 11.7166 13.263 12.6541C12.2803 13.5917 10.6871 13.5917 9.70448 12.6541L0.737007 4.09832C-0.245652 3.16077 -0.245652 1.64071 0.737007 0.703161Z" fill="#FF6447"/>
</svg>
