<svg width="8" height="13" viewBox="0 0 8 13" fill="none" xmlns="http://www.w3.org/2000/svg">
<path d="M0.42114 12.5845C-0.14038 12.0305 -0.14038 11.1323 0.42114 10.5783L5.54541 5.52256C6.10693 4.96855 7.01733 4.96855 7.57885 5.52256C8.14037 6.07656 8.14037 6.97479 7.57885 7.52879L2.45458 12.5845C1.89306 13.1385 0.982659 13.1385 0.42114 12.5845Z" fill="#828282"/>
<path d="M0.421147 0.415504C0.982666 -0.138501 1.89307 -0.138501 2.45459 0.415504L7.57886 5.47121C8.14038 6.02521 8.14038 6.92344 7.57886 7.47744C7.01734 8.03145 6.10694 8.03145 5.54542 7.47744L0.421147 2.42174C-0.140372 1.86773 -0.140372 0.96951 0.421147 0.415504Z" fill="#828282"/>
</svg>
