<svg width="512" height="512" viewBox="0 0 512 512" fill="none" xmlns="http://www.w3.org/2000/svg">
<path d="M512 80V432C511.976 453.21 503.54 473.544 488.542 488.542C473.544 503.54 453.21 511.976 432 512H80C58.79 511.976 38.4555 503.54 23.4578 488.542C8.46002 473.544 0.0238211 453.21 0 432L0 382C0 375.635 2.52856 369.53 7.02944 365.029C11.5303 360.529 17.6348 358 24 358C30.3652 358 36.4697 360.529 40.9706 365.029C45.4714 369.53 48 375.635 48 382V432C48.0093 440.484 51.3837 448.618 57.3828 454.617C63.382 460.616 71.5159 463.991 80 464H432C440.484 463.991 448.618 460.617 454.617 454.617C460.617 448.618 463.991 440.484 464 432V80C463.991 71.5159 460.616 63.382 454.617 57.3828C448.618 51.3837 440.484 48.0093 432 48H80C71.516 48.0095 63.3822 51.384 57.3831 57.3831C51.384 63.3822 48.0095 71.516 48 80V130C48 136.365 45.4714 142.47 40.9706 146.971C36.4697 151.471 30.3652 154 24 154C17.6348 154 11.5303 151.471 7.02944 146.971C2.52856 142.47 0 136.365 0 130L0 80C0.0240852 58.7901 8.46037 38.4558 23.4581 23.4581C38.4558 8.46037 58.7901 0.0240852 80 0L432 0C453.21 0.0238211 473.544 8.46002 488.542 23.4578C503.54 38.4555 511.976 58.79 512 80ZM0 256C0 262.365 2.52856 268.47 7.02944 272.971C11.5303 277.471 17.6348 280 24 280H228.936L179.536 329.4C177.307 331.629 175.539 334.274 174.333 337.186C173.127 340.098 172.506 343.219 172.506 346.371C172.506 352.736 175.035 358.841 179.536 363.341C184.036 367.842 190.141 370.371 196.506 370.371C202.871 370.371 208.976 367.843 213.477 363.342L303.848 272.971C306.077 270.742 307.845 268.097 309.051 265.185C310.257 262.273 310.878 259.152 310.878 256C310.878 252.848 310.257 249.727 309.051 246.815C307.845 243.903 306.077 241.258 303.848 239.029L213.477 148.658C208.976 144.157 202.871 141.628 196.506 141.628C190.141 141.628 184.036 144.157 179.535 148.658C175.034 153.159 172.505 159.264 172.505 165.629C172.505 171.994 175.034 178.099 179.535 182.6L228.935 232H24C17.6348 232 11.5303 234.529 7.02944 239.029C2.52856 243.53 0 249.635 0 256Z" fill="#F17B50"/>
</svg>
