<svg width="512" height="512" viewBox="0 0 512 512" fill="none" xmlns="http://www.w3.org/2000/svg">
<path d="M430.485 377.56L403.125 338.2C399.39 332.849 397.38 326.485 397.365 319.96V207C397.365 164.565 380.507 123.869 350.502 93.8629C320.496 63.8571 279.799 47 237.365 47C194.93 47 154.233 63.8571 124.227 93.8629C94.2216 123.869 77.3645 164.565 77.3645 207V319.96C77.3491 326.485 75.3393 332.849 71.6045 338.2L44.2445 377.56C40.1018 382.15 37.3776 387.842 36.4014 393.948C35.4252 400.053 36.2387 406.311 38.7436 411.964C41.2485 417.617 45.3376 422.423 50.5163 425.802C55.6949 429.18 61.7414 430.985 67.9245 431H158.965C162.637 449.085 172.448 465.344 186.736 477.022C201.025 488.7 218.911 495.08 237.365 495.08C255.818 495.08 273.704 488.7 287.993 477.022C302.281 465.344 312.092 449.085 315.765 431H406.805C412.988 430.985 419.034 429.18 424.213 425.802C429.391 422.423 433.481 417.617 435.985 411.964C438.49 406.311 439.304 400.053 438.328 393.948C437.351 387.842 434.627 382.15 430.485 377.56ZM237.365 463C227.461 462.972 217.809 459.882 209.732 454.153C201.654 448.424 195.546 440.337 192.245 431H282.485C279.184 440.337 273.075 448.424 264.998 454.153C256.92 459.882 247.268 462.972 237.365 463ZM67.9245 399C68.6477 398.329 69.2919 397.577 69.8445 396.76L97.8445 356.44C105.314 345.739 109.334 333.01 109.365 319.96V207C109.365 173.052 122.85 140.495 146.855 116.49C170.86 92.4857 203.417 79 237.365 79C271.312 79 303.87 92.4857 327.874 116.49C351.879 140.495 365.365 173.052 365.365 207V319.96C365.395 333.01 369.415 345.739 376.885 356.44L404.885 396.76C405.437 397.577 406.081 398.329 406.805 399H67.9245Z" fill="black"/>
<circle cx="339" cy="83" r="60" fill="url(#paint0_linear_419_8)"/>
<defs>
<linearGradient id="paint0_linear_419_8" x1="279" y1="83" x2="403.2" y2="78.2" gradientUnits="userSpaceOnUse">
<stop stop-color="#FF6447"/>
<stop offset="1" stop-color="#EC8DC9"/>
</linearGradient>
</defs>
</svg>
