<svg width="35" height="35" viewBox="0 0 35 35" fill="none" xmlns="http://www.w3.org/2000/svg">
<circle cx="17.5" cy="17.5" r="17.5" fill="#FF6447"/>
<path d="M15.4743 10.0733L14.2203 12.1977C13.9166 12.7121 13.3989 13.0639 12.8088 13.1567L10.8908 13.4585C9.27404 13.7129 8.63062 15.6956 9.78995 16.8509L11.2565 18.3124C11.7036 18.7578 11.9141 19.3882 11.8246 20.0129L11.4436 22.6701C11.2148 24.2663 12.872 25.4631 14.3153 24.744L16.4467 23.6821C16.9799 23.4164 17.6038 23.4023 18.1485 23.6435L20.3448 24.6162C21.7874 25.2552 23.3673 24.0501 23.1324 22.4899L22.7539 19.975C22.6631 19.3718 22.8525 18.7601 23.2684 18.3138L24.6559 16.8248C25.7487 15.6521 25.087 13.7347 23.5036 13.4856L21.4682 13.1654C20.847 13.0676 20.3079 12.6834 20.0128 12.128L18.9629 10.1516C18.2298 8.77184 16.2686 8.72779 15.4743 10.0733Z" fill="white"/>
</svg>
